<?xml version="1.0" standalone="no"?>
<!DOCTYPE svg PUBLIC "-//W3C//DTD SVG 20010904//EN"
 "http://www.w3.org/TR/2001/REC-SVG-20010904/DTD/svg10.dtd">
<svg version="1.0" xmlns="http://www.w3.org/2000/svg"
 width="1600.000000pt" height="1200.000000pt" viewBox="0 0 1600.000000 1200.000000"
 preserveAspectRatio="xMidYMid meet">

<g transform="translate(0.000000,1200.000000) scale(0.100000,-0.100000)"
fill="#000000" stroke="none">
<path d="M6725 9200 c-73 -28 -120 -72 -156 -145 -75 -154 -15 -337 136 -411
l55 -26 2 -192 c2 -167 3 -178 8 -86 3 58 7 86 8 63 2 -42 22 -63 22 -23 0 13
7 20 20 20 13 0 20 7 20 20 0 13 7 20 20 20 13 0 20 7 20 20 0 28 30 25 31 -2
2 -33 17 69 18 122 1 43 3 46 42 62 27 11 38 21 33 29 -5 8 -3 9 5 5 29 -18
104 86 127 174 18 71 13 121 -21 197 -64 142 -239 211 -390 153z m345 -473 c0
-2 -10 -12 -22 -23 l-23 -19 19 23 c18 21 26 27 26 19z"/>
<path d="M6911 8384 c0 -11 3 -14 6 -6 3 7 2 16 -1 19 -3 4 -6 -2 -5 -13z"/>
<path d="M6728 8123 c7 -3 16 -2 19 1 4 3 -2 6 -13 5 -11 0 -14 -3 -6 -6z"/>
<path d="M6668 8113 c7 -3 16 -2 19 1 4 3 -2 6 -13 5 -11 0 -14 -3 -6 -6z"/>
<path d="M6575 8095 c-39 -14 -40 -14 -5 -8 41 7 82 22 60 22 -8 0 -33 -7 -55
-14z"/>
<path d="M6402 8039 c-92 -37 -101 -43 -90 -57 11 -15 11 -15 -4 -4 -14 11
-24 9 -65 -12 -83 -42 -154 -92 -146 -101 4 -4 3 -5 -4 -1 -7 4 -49 -25 -100
-68 -119 -99 -224 -221 -297 -341 -37 -62 -44 -81 -24 -69 7 4 8 3 4 -5 -4 -6
-11 -9 -16 -6 -15 9 -119 -219 -106 -232 2 -3 10 13 17 36 7 22 16 38 22 34 6
-3 7 -1 4 5 -4 5 -4 17 -1 26 5 13 9 14 21 5 12 -10 36 9 139 112 68 68 124
132 124 141 0 11 8 18 20 18 11 0 20 5 20 10 0 6 9 10 20 10 11 0 20 4 20 9 0
5 9 13 20 16 11 3 20 13 20 21 0 8 9 14 20 14 12 0 20 7 20 16 0 9 9 18 20 21
11 3 20 14 20 25 0 12 6 18 18 16 14 -2 18 5 20 40 3 42 3 42 43 42 32 0 39 3
39 20 0 13 7 20 20 20 13 0 20 7 20 20 0 13 7 20 18 20 23 0 102 80 102 103 0
10 8 17 20 17 11 0 20 7 20 15 0 39 24 65 79 84 31 11 49 20 41 20 -8 0 -61
-18 -118 -40z m3 -18 c-6 -5 -21 -12 -35 -15 l-25 -7 25 15 c28 17 50 21 35 7z
m-765 -757 c0 -8 -6 -11 -15 -8 -8 4 -15 9 -15 13 0 4 7 8 15 8 8 0 15 -6 15
-13z"/>
<path d="M6445 7840 c-3 -6 1 -7 9 -4 18 7 21 14 7 14 -6 0 -13 -4 -16 -10z"/>
<path d="M6388 7814 c-39 -21 -35 -28 5 -8 37 19 44 24 31 24 -5 -1 -21 -8
-36 -16z"/>
<path d="M6273 7749 c-35 -22 -46 -37 -15 -20 22 13 58 40 52 41 -3 0 -20 -10
-37 -21z"/>
<path d="M6069 7592 l-34 -37 35 30 c19 17 37 31 39 33 2 1 2 4 -1 7 -2 3 -20
-12 -39 -33z"/>
<path d="M5980 7499 c0 -5 5 -7 10 -4 6 3 10 8 10 11 0 2 -4 4 -10 4 -5 0 -10
-5 -10 -11z"/>
<path d="M5929 7433 c-13 -16 -12 -17 4 -4 9 7 17 15 17 17 0 8 -8 3 -21 -13z"/>
<path d="M5840 7300 c-6 -11 -8 -20 -6 -20 3 0 10 9 16 20 6 11 8 20 6 20 -3
0 -10 -9 -16 -20z"/>
<path d="M5805 7239 c-4 -6 -5 -12 -2 -15 2 -3 7 2 10 11 7 17 1 20 -8 4z"/>
<path d="M6633 4076 c-123 -31 -192 -119 -193 -245 0 -85 16 -134 61 -185 47
-54 119 -86 203 -90 54 -3 164 9 175 19 1 2 0 26 -4 53 l-6 49 -52 -14 c-142
-38 -256 42 -245 172 5 60 34 107 80 131 47 24 127 29 172 10 22 -9 40 -15 41
-14 1 2 5 24 8 50 6 45 6 47 -25 57 -51 18 -159 22 -215 7z"/>
<path d="M9078 4077 c-111 -32 -171 -121 -171 -257 0 -174 99 -271 269 -264
66 2 151 41 182 84 70 95 69 271 -2 364 -50 66 -180 100 -278 73z m131 -102
c17 -8 38 -34 51 -61 19 -37 22 -57 18 -109 -9 -111 -69 -170 -149 -146 -58
17 -83 60 -87 147 -5 85 15 136 62 165 37 23 67 24 105 4z"/>
<path d="M6960 3820 l0 -261 68 3 67 3 3 108 3 108 82 -3 82 -3 3 -107 3 -108
64 0 65 0 0 260 0 260 -65 0 -65 0 0 -100 0 -100 -85 0 -85 0 0 100 0 100 -70
0 -70 0 0 -260z"/>
<path d="M7616 4003 c-23 -65 -137 -363 -161 -425 -6 -16 0 -18 58 -18 l65 0
20 58 19 57 104 0 104 0 18 -57 18 -58 71 0 c63 0 69 2 63 18 -3 9 -42 112
-85 227 -44 116 -85 225 -92 243 l-12 32 -81 0 -80 0 -29 -77z m119 -60 c15
-37 55 -157 55 -165 0 -4 -31 -8 -69 -8 l-69 0 31 95 c18 52 35 95 38 95 4 0
10 -8 14 -17z"/>
<path d="M7970 4030 l0 -50 65 0 65 0 0 -210 0 -210 65 0 65 0 0 210 0 210 65
0 65 0 0 50 0 50 -195 0 -195 0 0 -50z"/>
<path d="M8420 3820 l0 -262 148 4 c161 5 203 16 240 63 16 20 22 42 22 75 0
54 -23 90 -69 110 l-31 12 33 22 c17 12 38 33 45 46 17 33 9 105 -14 131 -41
45 -72 53 -226 57 l-148 4 0 -262z m245 145 c30 -29 31 -49 5 -75 -15 -15 -33
-20 -70 -20 l-50 0 0 53 c0 30 3 57 7 60 3 4 24 7 45 7 28 0 46 -7 63 -25z
m-2 -196 c28 -15 37 -28 37 -55 0 -36 -35 -58 -93 -59 l-52 0 -3 49 c-2 27 -1
55 2 62 7 17 78 19 109 3z"/>
<path d="M9470 4030 l0 -49 63 -3 62 -3 3 -207 2 -208 65 0 65 0 0 210 0 210
63 0 63 0 3 50 2 50 -196 0 -195 0 0 -50z"/>
</g>
</svg>
